<?xml version="1.0" encoding="UTF-8" standalone="no"?><!DOCTYPE svg PUBLIC "-//W3C//DTD SVG 1.1//EN" "http://www.w3.org/Graphics/SVG/1.1/DTD/svg11.dtd"><svg width="100%" height="100%" viewBox="0 0 512 512" version="1.1" xmlns="http://www.w3.org/2000/svg" xmlns:xlink="http://www.w3.org/1999/xlink" xml:space="preserve" xmlns:serif="http://www.serif.com/" style="fill-rule:evenodd;clip-rule:evenodd;stroke-linejoin:round;stroke-miterlimit:2;"><path d="M250.489,60.575c-0,-0 -0.091,-0 -0,-0c-49.06,-0 -78.423,30.899 -78.423,68.936l-0,51.228l31.712,0c0,0 -0.18,-31.261 0,-49.059c0.181,-20.961 12.649,-41.38 46.711,-41.471c34.061,0 46.529,20.419 46.71,41.471c0.181,17.798 0,49.059 0,49.059l31.713,0l-0,-51.228c-0,-38.037 -29.364,-68.936 -78.423,-68.936Z" style="fill:#ad7644;fill-rule:nonzero;"/><path d="M250.489,36.452c-0.091,-0 -0.091,-0 -0,-0c-64.329,-0 -102.727,40.476 -102.727,90.258l-0,67.039l41.56,0c0,0 -0.271,-40.928 0,-64.328c0.271,-27.466 16.625,-54.21 61.167,-54.21c44.542,0 60.895,26.744 61.166,54.21c0.271,23.4 0,64.328 0,64.328l41.561,0l-0,-67.039c-0.091,-49.782 -38.489,-90.258 -102.727,-90.258Z" style="fill:url(#_Linear1);fill-rule:nonzero;"/><g><path d="M341.38,171.795l-181.873,-0c-40.838,-0 -74.267,33.429 -74.267,74.267l0,158.382c0,40.837 33.429,74.266 74.267,74.266l181.873,0c40.838,0 74.267,-33.429 74.267,-74.266l-0,-158.382c-0,-40.838 -33.429,-74.267 -74.267,-74.267Zm71.014,231.113c0,40.024 -32.796,72.821 -72.821,72.821l-178.259,-0c-40.024,-0 -72.821,-32.797 -72.821,-72.821l-0,-155.31c-0,-40.025 32.797,-72.822 72.821,-72.822l178.259,0c40.025,0 72.821,32.797 72.821,72.822l0,155.31Z" style="fill:none;fill-rule:nonzero;"/><path d="M339.573,174.776l-178.259,0c-40.024,0 -72.821,32.797 -72.821,72.822l-0,155.219c-0,40.025 32.797,72.822 72.821,72.822l178.259,-0c40.025,-0 72.821,-32.797 72.821,-72.822l0,-155.219c0,-40.025 -32.796,-72.822 -72.821,-72.822Z" style="fill:url(#_Linear2);fill-rule:nonzero;"/></g><path d="M271.269,335.417c-0.181,-2.078 -0.181,-4.247 -0.181,-6.054c15.269,-7.589 25.84,-23.31 25.84,-41.56c0,-25.659 -20.78,-46.44 -46.439,-46.44c-25.659,0 -46.44,20.781 -46.44,46.44c0,18.25 10.571,33.971 25.84,41.56c0.09,1.807 0,3.976 -0.181,6.054c-0.451,4.246 -12.468,53.215 -14.817,64.509c-2.349,11.113 -4.698,17.076 5.963,17.076l59.45,0c10.661,0 8.312,-5.963 5.963,-17.076c-2.62,-11.203 -14.546,-60.263 -14.998,-64.509Z" style="fill:#331d11;fill-rule:nonzero;"/><defs><linearGradient id="_Linear1" x1="0" y1="0" x2="1" y2="0" gradientUnits="userSpaceOnUse" gradientTransform="matrix(9.63329e-15,157.323,-157.323,9.63329e-15,250.446,36.4352)"><stop offset="0" style="stop-color:#ede6d5;stop-opacity:1"/><stop offset="0.08" style="stop-color:#f0e7d1;stop-opacity:1"/><stop offset="0.2" style="stop-color:#f7e8c6;stop-opacity:1"/><stop offset="0.24" style="stop-color:#fbebc3;stop-opacity:1"/><stop offset="0.37" style="stop-color:#fae8bf;stop-opacity:1"/><stop offset="0.49" style="stop-color:#f6e1b5;stop-opacity:1"/><stop offset="0.6" style="stop-color:#efd6a3;stop-opacity:1"/><stop offset="0.72" style="stop-color:#e7c78d;stop-opacity:1"/><stop offset="0.83" style="stop-color:#ddb473;stop-opacity:1"/><stop offset="0.91" style="stop-color:#d4a45a;stop-opacity:1"/><stop offset="1" style="stop-color:#d4a45a;stop-opacity:1"/></linearGradient><linearGradient id="_Linear2" x1="0" y1="0" x2="1" y2="0" gradientUnits="userSpaceOnUse" gradientTransform="matrix(1.84256e-14,300.912,-300.912,1.84256e-14,250.446,174.808)"><stop offset="0" style="stop-color:#f3e9c3;stop-opacity:1"/><stop offset="0.12" style="stop-color:#ebdaa7;stop-opacity:1"/><stop offset="0.38" style="stop-color:#d5b67a;stop-opacity:1"/><stop offset="0.6" style="stop-color:#c79f5d;stop-opacity:1"/><stop offset="0.71" style="stop-color:#c29753;stop-opacity:1"/><stop offset="0.76" style="stop-color:#bc914f;stop-opacity:1"/><stop offset="0.82" style="stop-color:#ae8245;stop-opacity:1"/><stop offset="0.9" style="stop-color:#966c36;stop-opacity:1"/><stop offset="0.95" style="stop-color:#82592a;stop-opacity:1"/><stop offset="1" style="stop-color:#82592a;stop-opacity:1"/></linearGradient></defs></svg>